<?xml version="1.0" standalone="no"?>
<!DOCTYPE svg PUBLIC "-//W3C//DTD SVG 20010904//EN"
 "http://www.w3.org/TR/2001/REC-SVG-20010904/DTD/svg10.dtd">
<svg version="1.0" xmlns="http://www.w3.org/2000/svg"
 width="683.000000pt" height="492.000000pt" viewBox="0 0 683.000000 492.000000"
 preserveAspectRatio="xMidYMid meet">

<g transform="translate(0.000000,492.000000) scale(0.100000,-0.100000)"
fill="#000000" stroke="none">
<path d="M3964 4681 c-22 -10 -168 -42 -389 -86 -79 -16 -139 -34 -175 -54
-30 -16 -119 -55 -198 -86 -150 -60 -194 -86 -177 -104 7 -7 68 14 188 64 248
103 243 102 285 79 29 -16 33 -22 28 -47 -3 -16 -6 -40 -6 -52 0 -15 -24 -46
-71 -91 -39 -38 -93 -90 -119 -116 -42 -42 -52 -47 -78 -42 -54 11 -112 -40
-112 -97 0 -12 -10 -23 -27 -30 -16 -5 -69 -30 -118 -55 -50 -24 -98 -44 -108
-44 -10 0 -36 9 -58 20 -22 12 -44 18 -49 15 -21 -13 -8 -35 30 -55 29 -15 38
-25 33 -34 -7 -12 -84 -105 -108 -130 -6 -6 -48 -55 -94 -108 -63 -75 -89 -98
-107 -98 -73 0 -119 -71 -88 -135 23 -49 76 -67 128 -44 21 10 31 7 78 -25
374 -257 352 -240 363 -285 11 -48 45 -88 78 -93 71 -10 124 28 129 94 3 44
-10 35 237 158 89 44 108 50 128 41 31 -14 78 -14 117 0 28 10 55 4 236 -56
438 -142 424 -137 431 -173 8 -39 23 -59 62 -78 36 -19 74 -11 110 22 39 36
33 118 -11 150 -15 11 -15 17 -3 61 7 26 21 84 31 128 35 161 70 309 74 313 3
2 19 11 38 20 18 10 38 29 45 43 12 24 20 26 139 42 l127 17 30 -30 c23 -23
40 -30 68 -30 36 0 42 -5 105 -87 38 -49 94 -122 127 -163 47 -60 57 -79 52
-100 -3 -14 -9 -36 -12 -49 -4 -14 1 -37 12 -58 l18 -33 -47 -138 c-58 -168
-64 -192 -43 -192 15 0 71 130 113 263 17 54 19 57 51 57 34 0 73 29 73 54 0
20 66 29 156 21 47 -5 80 -13 87 -22 36 -45 59 -64 72 -59 21 8 37 -21 86
-154 47 -126 66 -163 81 -154 15 10 3 53 -53 192 -39 96 -52 141 -53 184 -1
42 -7 64 -25 88 -18 25 -29 66 -47 174 -32 188 -31 204 11 239 22 18 41 26 53
23 55 -18 269 -397 302 -536 7 -30 20 -65 28 -78 15 -23 35 -116 47 -220 7
-62 18 -83 36 -65 7 7 3 55 -11 138 -19 118 -19 129 -4 146 14 15 14 23 4 56
-7 21 -27 54 -45 73 -18 19 -50 69 -70 110 -32 63 -142 262 -231 415 -12 22
-114 132 -226 245 -192 194 -209 208 -298 254 -52 27 -109 59 -127 72 -17 13
-71 42 -120 64 -48 22 -131 62 -183 89 -52 26 -120 55 -150 64 -95 29 -358 68
-545 83 -305 24 -319 24 -341 15z m287 -51 c178 -17 252 -50 265 -116 3 -19 4
-37 2 -39 -2 -3 -63 -13 -135 -24 -102 -15 -139 -17 -171 -8 -32 9 -48 7 -84
-6 -40 -15 -62 -16 -228 -6 -163 10 -188 14 -207 32 -14 13 -41 22 -75 25 -56
5 -78 16 -78 38 0 16 37 27 210 60 74 14 162 32 195 39 75 16 172 18 306 5z
m413 -55 c49 -9 107 -22 130 -30 22 -7 57 -16 76 -20 19 -4 60 -20 91 -36 31
-16 61 -29 67 -29 5 0 50 -26 98 -58 87 -58 191 -162 180 -181 -4 -5 -43 -9
-89 -9 -74 0 -87 3 -126 29 -25 16 -55 29 -69 29 -13 0 -86 35 -161 77 -141
80 -161 94 -161 112 0 17 -61 51 -91 51 -19 0 -35 11 -53 34 -32 42 -33 58 -3
52 12 -3 62 -13 111 -21z m-94 -155 c22 -11 53 -20 70 -20 30 0 232 -94 238
-111 2 -5 8 -9 14 -9 20 0 68 -42 68 -60 0 -10 18 -33 39 -52 44 -37 47 -50
43 -235 -2 -81 -4 -92 -21 -98 -11 -3 -29 -21 -40 -40 -15 -27 -27 -35 -48
-35 -15 0 -70 -7 -122 -14 l-94 -14 -28 29 c-15 16 -38 30 -51 30 -12 1 -36 2
-53 3 -21 1 -73 32 -172 105 -136 98 -143 105 -143 138 0 33 -29 74 -59 84 -9
3 -15 34 -18 92 l-6 88 49 47 c48 45 52 47 164 68 63 12 119 23 123 23 4 1 25
-8 47 -19z m-573 -36 c67 -5 87 -11 107 -29 14 -13 30 -25 37 -27 15 -5 15
-201 0 -206 -21 -7 -61 -44 -61 -56 0 -24 -34 -42 -183 -99 -137 -53 -150 -56
-170 -42 -26 18 -100 20 -127 3 -16 -10 -37 -3 -147 52 -127 65 -128 65 -131
103 -3 36 1 42 117 154 l120 116 55 1 c44 1 60 6 78 24 25 26 32 26 305 6z
m1409 -132 c111 -66 213 -153 323 -271 116 -125 136 -154 115 -172 -12 -10
-21 -9 -47 3 -18 8 -46 19 -62 22 -21 5 -45 27 -78 69 -51 66 -115 136 -258
284 -123 127 -121 143 7 65z m-129 -82 c29 -6 63 -23 83 -41 19 -17 51 -41 71
-54 65 -42 223 -218 259 -289 8 -16 28 -43 44 -60 27 -29 32 -45 57 -206 l28
-174 -21 -34 -20 -33 -122 7 c-108 6 -123 9 -141 29 -26 29 -58 45 -88 45 -17
0 -32 11 -49 38 -21 31 -53 72 -108 139 -6 7 -32 43 -58 80 -41 59 -47 75 -48
120 0 58 -13 78 -60 98 l-33 14 5 83 c12 203 13 205 47 227 36 23 82 26 154
11z m-1895 -204 c203 -94 188 -85 188 -122 0 -26 8 -39 35 -61 33 -26 35 -31
35 -88 0 -140 -13 -285 -25 -285 -28 0 -58 -38 -64 -80 l-6 -43 -169 -84
c-122 -61 -176 -83 -193 -79 -13 3 -35 9 -49 12 -14 4 -43 1 -65 -6 -36 -12
-42 -11 -67 7 -15 11 -76 53 -136 94 -245 166 -236 159 -236 187 0 14 -5 40
-12 58 -11 31 -9 37 22 81 18 26 68 86 109 132 42 46 95 107 118 135 66 83
246 169 331 160 34 -4 53 -1 67 10 11 8 21 16 22 16 1 0 44 -20 95 -44z m741
7 c14 -14 34 -17 79 -16 l60 3 106 -78 c166 -122 158 -113 161 -188 1 -12 15
-35 31 -51 l30 -30 -45 -196 c-25 -108 -48 -217 -51 -241 -6 -42 -8 -44 -46
-49 -22 -3 -48 -13 -57 -21 -19 -17 -45 -10 -566 158 -59 19 -70 26 -73 47 -6
56 -14 71 -47 91 -33 19 -35 23 -35 76 0 32 3 108 7 170 6 106 8 114 29 122
28 11 54 48 54 77 0 26 8 30 190 99 130 49 146 51 173 27z"/>
<path d="M2243 2974 c-59 -46 -51 -150 13 -174 107 -41 198 45 149 140 -31 61
-108 77 -162 34z"/>
<path d="M423 2948 c-42 -20 -44 -48 -41 -384 4 -350 6 -360 69 -454 100 -148
330 -201 506 -118 69 32 157 121 190 193 l28 60 0 331 c0 312 -1 333 -19 353
-13 14 -31 21 -57 21 -41 0 -66 -18 -74 -53 -2 -12 -6 -157 -7 -322 -3 -288
-4 -302 -25 -341 -42 -79 -129 -134 -211 -134 -38 0 -132 34 -164 59 -13 10
-35 41 -48 67 -25 48 -25 53 -30 367 l-5 319 -28 24 c-30 26 -50 29 -84 12z"/>
<path d="M4832 2950 c-35 -14 -42 -50 -42 -206 l0 -144 -50 34 c-120 83 -299
69 -410 -31 -95 -85 -136 -187 -127 -316 14 -206 189 -355 391 -332 62 8 142
41 165 69 18 22 28 20 37 -6 12 -40 35 -58 74 -58 25 0 43 7 56 21 18 20 19
45 22 458 1 240 0 446 -3 459 -13 52 -59 73 -113 52z m-194 -415 c149 -45 205
-211 116 -347 -32 -50 -107 -88 -174 -88 -54 0 -130 32 -162 67 -30 32 -50 95
-50 153 0 102 52 179 142 210 67 24 65 23 128 5z"/>
<path d="M1422 2680 c-12 -5 -27 -21 -32 -35 -6 -15 -10 -154 -10 -329 0 -292
1 -304 21 -330 15 -20 29 -26 57 -26 76 0 82 18 82 248 0 244 12 281 108 324
82 37 178 1 220 -82 20 -41 22 -57 22 -227 0 -235 10 -265 88 -265 25 0 42 7
54 22 16 20 18 45 18 232 0 224 -7 278 -48 342 -58 93 -132 129 -262 130 -83
1 -100 -2 -137 -23 -24 -14 -43 -28 -43 -33 0 -4 -7 -8 -15 -8 -8 0 -15 6 -15
13 0 35 -67 64 -108 47z"/>
<path d="M2293 2682 c-51 -8 -53 -22 -53 -362 l0 -317 23 -21 c27 -25 81 -29
103 -8 30 30 34 72 34 349 0 249 -2 286 -18 316 -17 36 -47 50 -89 43z"/>
<path d="M2787 2671 c-97 -32 -162 -91 -211 -191 -28 -59 -31 -74 -31 -160 1
-83 4 -103 29 -157 35 -76 104 -144 184 -181 50 -22 70 -26 162 -26 91 0 112
4 160 26 130 60 196 189 114 226 -45 21 -71 15 -105 -27 -46 -58 -109 -85
-182 -78 -123 11 -200 96 -201 220 -1 129 85 222 204 221 68 -1 113 -23 164
-80 30 -34 46 -44 70 -44 66 0 102 60 72 118 -20 39 -86 95 -145 123 -66 31
-205 36 -284 10z"/>
<path d="M3620 2680 c-85 -22 -157 -69 -210 -137 -48 -63 -69 -133 -70 -228 0
-68 4 -89 29 -140 41 -86 89 -136 173 -181 71 -37 76 -38 173 -38 91 0 106 2
165 30 78 37 140 97 178 173 24 50 27 67 27 161 0 94 -3 111 -27 161 -61 122
-181 199 -322 205 -45 2 -97 -1 -116 -6z m189 -159 c98 -51 142 -160 110 -275
-15 -56 -44 -90 -101 -121 -43 -23 -59 -27 -114 -23 -78 5 -136 41 -174 108
-46 83 -28 224 37 282 54 50 173 64 242 29z"/>
<path d="M5333 2672 c-167 -60 -266 -214 -250 -389 8 -86 45 -162 106 -222 61
-59 125 -90 214 -104 125 -20 237 12 315 90 54 55 58 94 10 123 -44 27 -70 25
-99 -6 -82 -88 -245 -89 -326 -2 -24 26 -43 69 -43 99 0 18 10 19 265 19 l264
0 7 36 c7 39 -6 119 -29 174 -24 57 -91 124 -159 160 -53 29 -75 34 -143 37
-59 3 -93 -1 -132 -15z m210 -150 c36 -21 91 -97 82 -112 -7 -12 -351 -14
-358 -2 -18 28 72 122 128 136 37 8 117 -3 148 -22z"/>
<path d="M6105 2684 c-127 -32 -195 -107 -195 -216 0 -107 60 -156 274 -225
64 -20 95 -35 108 -53 24 -34 14 -65 -27 -84 -66 -32 -153 -13 -228 50 -52 44
-127 22 -127 -37 0 -68 43 -111 148 -149 52 -19 75 -22 142 -17 147 10 235 73
259 188 27 123 -65 211 -263 253 -98 20 -126 40 -126 88 0 40 42 68 102 68 56
0 78 -9 131 -56 45 -41 60 -42 94 -8 21 21 25 32 20 66 -10 77 -91 128 -215
133 -42 2 -86 2 -97 -1z"/>
<path d="M5403 1772 c-39 -46 -42 -47 -86 -44 -41 4 -50 0 -77 -26 -54 -55
-33 -142 38 -158 15 -3 32 -7 37 -9 6 -1 44 -76 85 -166 41 -90 87 -187 101
-215 23 -45 25 -54 13 -75 -7 -13 -16 -44 -20 -68 -6 -37 -22 -62 -98 -150
-51 -58 -104 -123 -120 -143 -19 -26 -43 -42 -77 -53 -27 -9 -58 -28 -69 -42
-18 -23 -34 -28 -147 -44 -71 -10 -139 -21 -152 -24 -17 -4 -31 1 -50 19 -62
58 -161 22 -161 -58 0 -40 0 -40 -120 -105 -197 -108 -256 -135 -313 -142 -38
-4 -71 -16 -98 -35 l-40 -27 -194 7 c-107 3 -208 9 -225 12 -23 5 -30 3 -30
-9 0 -29 62 -39 270 -43 113 -3 220 -10 239 -16 18 -5 50 -7 71 -4 29 4 60 -2
126 -25 48 -17 98 -38 111 -46 33 -22 107 -18 148 7 38 24 98 43 205 65 51 11
126 41 235 94 88 43 185 86 215 96 31 10 66 30 80 46 14 15 57 51 95 78 274
195 251 175 373 326 39 50 84 98 100 109 35 24 80 85 121 166 18 36 40 72 47
81 8 8 14 19 14 22 0 4 36 69 80 144 44 75 80 148 80 162 0 14 16 81 36 148
36 120 39 168 10 143 -8 -6 -18 -26 -21 -43 -8 -37 -85 -265 -107 -317 -25
-57 -158 -294 -175 -310 -14 -14 -15 -11 -9 25 12 70 26 114 41 128 8 8 26 61
40 118 14 57 32 127 39 154 41 146 58 225 52 240 -11 30 -34 -1 -47 -63 -23
-112 -79 -296 -96 -316 -10 -11 -25 -29 -34 -39 -9 -10 -19 -31 -22 -46 -8
-39 -41 -68 -160 -139 -83 -50 -110 -62 -129 -56 -13 4 -32 7 -43 8 -22 1 -25
7 -119 206 -32 69 -69 147 -82 173 -29 59 -29 62 -3 95 16 20 19 34 14 64 -5
25 -2 43 7 53 34 37 68 90 68 105 0 23 -29 7 -67 -38z m517 -579 c-1 -44 -40
-166 -74 -225 -50 -89 -248 -305 -344 -374 -92 -66 -209 -144 -215 -144 -3 0
-13 20 -22 44 -17 44 -17 46 4 79 11 19 21 51 21 70 0 30 11 48 63 108 34 39
76 87 92 108 77 96 84 102 119 105 42 3 71 27 86 70 8 26 27 41 101 81 50 27
105 59 122 72 39 27 47 28 47 6z m-782 -647 c15 -8 39 -17 53 -20 26 -6 49
-41 49 -75 0 -27 -36 -55 -142 -110 -248 -129 -483 -200 -673 -203 -50 -1
-175 54 -175 76 0 20 12 27 218 134 152 79 178 90 224 90 47 0 55 3 86 37 33
35 38 37 140 51 59 8 123 18 142 23 49 13 49 13 78 -3z"/>
<path d="M2527 1643 c-10 -10 -8 -53 2 -53 10 0 21 24 21 46 0 15 -12 19 -23
7z"/>
<path d="M630 1545 c0 -52 0 -98 0 -102 0 -5 6 -8 13 -8 8 0 13 20 15 58 2 31
6 57 10 57 4 0 24 -28 45 -61 57 -88 71 -80 75 44 2 90 1 98 -15 95 -14 -3
-19 -16 -23 -68 l-5 -65 -15 30 c-8 17 -20 36 -27 43 -7 8 -18 22 -23 33 -6
10 -19 23 -30 29 -19 10 -20 7 -20 -85z"/>
<path d="M977 1616 c-55 -37 -61 -113 -12 -162 33 -33 84 -32 124 2 27 22 31
32 31 73 0 37 -6 54 -25 75 -13 14 -28 27 -32 27 -40 7 -58 3 -86 -15z m93
-43 c23 -30 21 -65 -7 -95 -21 -24 -48 -23 -73 2 -39 39 -12 120 39 120 11 0
29 -12 41 -27z"/>
<path d="M1713 1633 c-79 -15 -99 -159 -26 -192 43 -20 82 -13 115 19 28 28
30 35 25 78 -4 37 -12 52 -38 74 -18 16 -38 27 -44 27 -5 -1 -20 -4 -32 -6z
m57 -53 c38 -38 12 -120 -38 -120 -45 0 -69 84 -35 122 21 24 48 23 73 -2z"/>
<path d="M3180 1628 c-40 -16 -65 -57 -65 -106 0 -37 5 -48 30 -68 41 -33 94
-32 128 2 54 54 41 136 -27 168 -19 9 -36 16 -38 15 -1 -1 -14 -6 -28 -11z
m67 -50 c13 -12 23 -33 23 -49 0 -30 -34 -69 -59 -69 -47 1 -76 71 -47 115 20
31 52 32 83 3z"/>
<path d="M410 1556 c0 -92 21 -126 78 -126 64 1 76 19 81 116 3 77 1 86 -14
82 -14 -2 -18 -16 -20 -71 -3 -74 -17 -100 -49 -95 -29 4 -46 44 -46 111 0 44
-3 57 -15 57 -12 0 -15 -15 -15 -74z"/>
<path d="M850 1530 c0 -82 3 -100 15 -100 12 0 15 18 15 100 0 82 -3 100 -15
100 -12 0 -15 -18 -15 -100z"/>
<path d="M1170 1530 c0 -82 3 -100 15 -100 12 0 15 14 15 65 0 36 3 65 8 64 4
0 25 -28 47 -62 22 -34 48 -63 58 -65 15 -3 17 7 17 97 0 83 -3 101 -15 101
-12 0 -15 -14 -15 -65 0 -36 -4 -65 -8 -65 -4 0 -25 29 -46 65 -26 44 -44 65
-57 65 -17 0 -19 -8 -19 -100z"/>
<path d="M1468 1580 c-5 -79 2 -152 15 -147 7 2 13 18 15 35 3 26 8 32 27 32
60 0 98 46 75 90 -15 28 -42 40 -88 40 l-40 0 -4 -50z m88 6 c25 -19 8 -50
-30 -54 -23 -3 -26 0 -26 26 0 45 20 54 56 28z"/>
<path d="M1880 1546 c0 -76 2 -86 22 -100 31 -22 91 -20 111 2 23 26 25 182 2
182 -12 0 -15 -14 -15 -69 0 -69 -14 -101 -43 -101 -31 1 -40 20 -43 91 -2 57
-7 75 -19 77 -13 3 -15 -10 -15 -82z"/>
<path d="M2090 1530 c0 -91 2 -101 18 -98 10 2 18 13 19 28 0 14 1 31 2 38 2
25 28 11 50 -28 12 -22 29 -40 37 -40 18 0 18 14 -1 51 -15 27 -14 31 7 59
l22 30 -21 28 c-17 23 -28 27 -77 30 l-56 3 0 -101z m104 48 c14 -23 -1 -38
-40 -41 -30 -2 -42 18 -30 49 8 20 56 14 70 -8z"/>
<path d="M2360 1530 l0 -101 57 3 c68 4 85 25 22 30 l-42 3 -1 80 c-1 67 -4
80 -18 83 -16 3 -18 -7 -18 -98z"/>
<path d="M2602 1533 c3 -84 6 -98 21 -101 15 -3 17 7 17 97 0 95 -1 101 -20
101 -20 0 -21 -5 -18 -97z"/>
<path d="M2692 1533 c2 -79 6 -98 18 -98 11 0 16 15 18 64 l3 65 42 -65 c23
-35 50 -65 60 -67 15 -3 17 7 17 98 0 91 -2 101 -17 98 -14 -3 -18 -14 -19
-48 -1 -76 -3 -77 -44 -12 -28 42 -47 62 -61 62 -19 0 -20 -6 -17 -97z"/>
<path d="M2910 1530 c0 -82 3 -100 15 -100 12 0 15 13 15 58 0 32 3 61 6 65 3
3 25 -22 48 -56 22 -34 49 -63 59 -65 15 -3 17 7 17 98 0 91 -2 101 -17 98
-15 -3 -18 -13 -17 -61 2 -67 -6 -65 -58 14 -19 29 -39 49 -50 49 -16 0 -18
-10 -18 -100z"/>
<path d="M3338 1625 c-3 -3 6 -36 19 -73 14 -37 28 -78 32 -92 4 -15 16 -26
29 -28 16 -3 25 6 40 40 27 60 54 149 48 155 -16 16 -38 -14 -57 -77 -11 -38
-24 -70 -28 -70 -5 0 -17 33 -28 72 -18 66 -36 91 -55 73z"/>
<path d="M3584 1613 c-4 -10 -20 -52 -35 -93 -34 -87 -34 -90 -14 -90 9 0 20
11 25 25 8 21 16 25 49 25 33 0 40 -4 43 -22 3 -25 38 -39 38 -16 0 8 -13 52
-28 98 -23 69 -33 86 -50 88 -14 2 -24 -3 -28 -15z m44 -90 c-5 -26 -38 -25
-38 1 0 31 21 51 33 31 4 -9 7 -23 5 -32z"/>
<path d="M3700 1616 c0 -9 12 -16 28 -18 27 -3 27 -4 30 -86 2 -60 6 -82 15
-79 7 2 14 34 17 83 5 77 6 79 33 82 15 2 27 9 27 18 0 11 -17 14 -75 14 -58
0 -75 -3 -75 -14z"/>
<path d="M3882 1533 c3 -84 6 -98 21 -101 15 -3 17 7 17 97 0 95 -1 101 -20
101 -20 0 -21 -5 -18 -97z"/>
<path d="M3996 1605 c-20 -22 -26 -38 -26 -76 0 -41 4 -51 31 -73 94 -80 201
40 127 143 -12 17 -29 25 -62 28 -39 5 -48 2 -70 -22z m104 -25 c24 -24 26
-67 4 -98 -32 -46 -104 -12 -104 48 0 34 31 70 60 70 11 0 29 -9 40 -20z"/>
<path d="M4210 1628 c0 -2 -1 -46 -3 -98 -2 -79 1 -95 13 -95 11 0 16 15 18
63 2 34 6 62 10 62 4 0 18 -20 30 -44 29 -54 58 -86 77 -86 12 0 15 19 15 100
0 82 -3 100 -15 100 -12 0 -15 -13 -15 -58 0 -32 -3 -61 -6 -65 -3 -3 -25 22
-48 56 -22 34 -49 63 -58 65 -10 2 -18 2 -18 0z"/>
<path d="M410 1221 c0 -112 0 -112 77 -100 52 7 81 31 89 74 12 67 -48 125
-132 125 l-34 0 0 -99z m89 54 c46 -23 55 -71 21 -105 -11 -11 -31 -20 -45
-20 -24 0 -25 2 -25 63 0 57 5 77 17 77 2 0 17 -7 32 -15z"/>
<path d="M620 1220 l0 -101 63 3 c69 3 81 21 17 26 -35 3 -40 6 -40 28 0 21 5
24 35 24 24 0 35 5 35 15 0 10 -11 15 -35 15 -31 0 -35 3 -35 25 0 22 4 25 39
25 22 0 42 4 45 8 11 17 -12 28 -66 30 l-58 3 0 -101z"/>
<path d="M819 1307 c-21 -16 -31 -49 -19 -67 5 -8 28 -24 51 -35 23 -11 44
-26 47 -32 6 -20 -27 -27 -65 -14 -19 7 -37 11 -39 8 -11 -11 11 -37 40 -47
40 -13 80 0 96 30 17 33 3 57 -45 75 -46 18 -65 42 -40 52 15 5 33 2 68 -12
12 -5 17 -2 17 10 0 38 -75 60 -111 32z"/>
<path d="M1111 1306 c-85 -47 -53 -190 43 -190 43 0 88 36 69 55 -9 9 -16 8
-28 -5 -9 -9 -27 -16 -39 -16 -59 0 -75 85 -24 123 26 19 29 20 46 4 19 -17
52 -23 52 -9 -1 22 -45 52 -77 52 -10 -1 -29 -7 -42 -14z"/>
<path d="M1335 1311 c-38 -16 -58 -49 -58 -96 0 -50 14 -72 60 -91 55 -23 118
12 129 71 15 80 -59 145 -131 116z m80 -54 c43 -61 -21 -137 -78 -94 -9 6 -20
26 -23 44 -5 25 -1 37 19 57 28 28 59 26 82 -7z"/>
<path d="M1518 1308 c-3 -7 -3 -26 -2 -43 1 -16 3 -56 3 -87 1 -45 4 -58 16
-58 12 0 15 13 15 55 0 30 4 55 9 55 6 0 18 -25 27 -55 25 -78 44 -74 75 15
30 88 34 86 37 -17 2 -40 6 -53 17 -53 13 0 15 15 13 98 -3 96 -3 97 -28 97
-20 0 -28 -9 -49 -62 -13 -35 -27 -63 -30 -63 -3 0 -17 29 -29 65 -20 54 -28
65 -47 65 -12 0 -25 -6 -27 -12z"/>
<path d="M1790 1219 c0 -90 2 -100 18 -97 9 2 18 13 18 26 1 12 2 27 3 32 0 6
16 10 35 10 41 0 66 22 66 58 0 48 -33 72 -99 72 l-41 0 0 -101z m97 45 c9
-24 -10 -49 -38 -49 -24 0 -36 23 -25 51 7 19 55 18 63 -2z"/>
<path d="M1980 1219 l0 -99 66 0 c48 0 65 3 62 13 -3 6 -25 13 -51 15 -42 3
-47 6 -47 28 0 21 4 24 40 24 29 0 40 4 40 15 0 11 -11 15 -40 15 -36 0 -40 3
-40 25 0 23 4 25 45 25 37 0 45 3 45 18 0 16 -9 19 -60 19 l-60 1 0 -99z"/>
<path d="M2142 1301 c2 -9 15 -17 31 -19 27 -3 27 -4 27 -83 0 -63 3 -79 15
-79 11 0 15 18 17 77 3 77 3 78 32 83 17 3 29 8 28 13 -1 4 -2 12 -2 17 0 7
-29 10 -75 9 -64 -1 -75 -4 -73 -18z"/>
<path d="M2338 1312 c-1 -4 -2 -49 -2 -100 l-1 -93 60 3 c64 3 76 23 15 24
-32 0 -35 3 -35 29 0 26 4 29 29 30 16 0 31 6 33 13 3 8 -7 12 -32 12 -34 0
-36 2 -33 27 3 24 7 27 43 27 29 1 40 5 40 16 0 11 -14 15 -57 17 -32 1 -59
-1 -60 -5z"/>
<path d="M2508 1310 c-1 -5 -2 -50 0 -100 3 -70 7 -90 18 -90 11 0 14 15 14
65 0 36 3 65 8 65 7 -1 47 -61 71 -107 6 -13 21 -23 31 -23 19 0 20 7 20 100
0 82 -3 100 -15 100 -12 0 -15 -14 -15 -65 0 -36 -4 -65 -9 -65 -5 0 -26 29
-46 65 -24 44 -42 65 -55 65 -10 0 -20 -4 -22 -10z"/>
<path d="M2775 1308 c-75 -41 -74 -147 2 -183 31 -15 36 -15 71 2 20 10 38 26
40 36 4 21 -21 23 -38 2 -16 -20 -54 -19 -74 1 -9 9 -16 32 -16 54 0 31 5 43
25 56 24 16 65 12 65 -7 0 -5 9 -9 20 -9 32 0 22 28 -17 49 -27 14 -52 14 -78
-1z"/>
<path d="M2945 1312 c-3 -3 -5 -47 -5 -99 l0 -93 65 0 c51 0 65 3 65 15 0 11
-11 15 -43 15 -50 0 -57 4 -50 30 4 13 16 20 41 22 52 4 54 28 3 28 -37 0 -41
3 -41 24 0 22 5 25 42 28 28 2 44 8 46 18 2 12 -10 15 -58 16 -33 1 -62 -1
-65 -4z"/>
<path d="M3142 1304 c-45 -31 -23 -77 51 -108 22 -9 37 -21 35 -28 -6 -18 -47
-22 -74 -7 -27 14 -39 8 -30 -16 16 -42 111 -39 133 5 17 33 1 58 -53 81 -47
21 -57 44 -23 54 13 4 27 0 40 -11 29 -26 48 -3 20 25 -25 25 -68 27 -99 5z"/>
<path d="M415 1012 c-3 -3 -5 -47 -5 -99 l0 -93 60 0 c47 0 60 3 60 15 0 11
-11 15 -41 15 -38 0 -40 2 -37 27 2 23 8 27 32 28 16 0 31 6 33 13 3 8 -7 12
-32 12 -34 0 -36 2 -33 28 2 22 8 27 33 28 56 2 60 3 47 16 -11 11 -107 20
-117 10z"/>
<path d="M568 1009 c-16 -10 -4 -22 25 -24 21 -2 22 -7 25 -84 2 -71 5 -82 20
-79 17 3 18 11 21 131 1 19 6 27 19 27 23 0 48 17 39 26 -10 11 -133 13 -149
3z"/>
<path d="M816 938 c-9 -112 -6 -118 59 -118 43 0 57 5 78 25 31 32 38 75 19
115 -18 38 -35 47 -99 56 l-50 6 -7 -84z m117 20 c23 -27 22 -49 -4 -82 -15
-20 -29 -26 -48 -24 -24 3 -26 6 -27 58 0 30 4 61 9 68 13 16 47 6 70 -20z"/>
<path d="M1036 1013 c-3 -3 -6 -41 -6 -84 0 -69 2 -80 22 -93 12 -9 39 -16 60
-16 29 0 41 6 54 26 32 48 31 174 -1 174 -12 0 -15 -15 -15 -69 0 -73 -14
-101 -49 -101 -31 0 -41 22 -41 91 0 63 -8 88 -24 72z"/>
<path d="M1317 1014 c-4 -4 -7 -49 -7 -101 l0 -93 48 0 c65 0 94 18 111 66 12
35 12 44 -3 77 -10 20 -25 38 -34 41 -38 11 -108 17 -115 10z m106 -52 c25
-22 22 -77 -5 -96 -12 -9 -33 -16 -45 -16 -22 0 -23 4 -23 63 0 35 3 66 6 69
8 9 47 -3 67 -20z"/>
<path d="M1533 1013 c-9 -3 -13 -33 -13 -99 l0 -94 65 0 c50 0 65 3 65 14 0
10 -14 16 -42 18 -38 3 -43 6 -43 28 0 21 5 25 29 25 42 0 45 23 4 27 -28 2
-33 7 -33 28 0 23 3 25 38 22 28 -2 37 1 37 13 0 8 -6 15 -12 16 -7 0 -29 2
-48 3 -19 2 -41 2 -47 -1z"/>
<path d="M1678 1014 c-6 -5 6 -41 32 -99 5 -11 14 -37 20 -57 17 -55 45 -51
71 10 28 62 52 143 45 149 -21 22 -66 -66 -66 -129 0 -49 -16 -31 -40 45 -24
77 -43 101 -62 81z"/>
<path d="M1890 920 l0 -100 60 0 c47 0 60 3 60 15 0 11 -11 15 -40 15 -36 0
-40 3 -40 25 0 22 4 25 35 25 24 0 35 5 35 15 0 10 -11 15 -35 15 -32 0 -35 2
-35 30 0 29 1 30 39 25 28 -4 40 -1 44 9 9 22 -2 26 -65 26 l-58 0 0 -100z"/>
<path d="M2070 1018 c0 -1 -1 -46 -2 -98 l-2 -95 63 -3 c48 -2 62 0 59 10 -3
7 -23 14 -46 16 l-41 3 -3 81 c-2 54 -7 83 -15 86 -7 2 -13 2 -13 0z"/>
<path d="M2248 997 c-32 -30 -42 -59 -34 -101 10 -51 39 -76 91 -76 38 0 47 4
69 33 43 57 30 125 -31 156 -34 17 -68 13 -95 -12z m92 -27 c24 -24 26 -77 3
-102 -33 -37 -84 -14 -98 44 -5 21 -1 33 19 52 30 31 49 33 76 6z"/>
<path d="M2450 1010 c-5 -3 -7 -30 -5 -60 2 -30 4 -72 4 -92 1 -49 28 -53 33
-5 3 29 6 32 41 35 47 4 72 37 62 81 -5 25 -14 33 -43 40 -38 11 -76 11 -92 1z
m95 -40 c14 -22 -6 -50 -36 -50 -24 0 -29 4 -29 23 0 13 3 27 7 30 10 11 51 8
58 -3z"/>
<path d="M2637 1013 c-4 -3 -7 -48 -7 -100 0 -85 2 -93 19 -93 15 0 21 8 23
32 3 29 7 33 42 39 44 7 56 21 56 66 0 26 -6 36 -30 48 -30 15 -91 20 -103 8z
m84 -33 c5 0 9 -13 9 -30 0 -27 -3 -30 -30 -30 -26 0 -30 4 -30 28 0 33 8 45
28 37 7 -3 18 -5 23 -5z"/>
<path d="M2818 1006 c-2 -6 -2 -50 0 -98 l3 -88 61 0 c70 0 78 23 9 28 -39 3
-42 5 -39 30 3 24 7 27 36 24 24 -3 32 0 32 12 0 12 -10 16 -36 16 -31 0 -35
3 -32 23 2 18 11 23 43 27 27 3 40 10 40 20 0 11 -13 15 -57 16 -33 0 -58 -4
-60 -10z"/>
<path d="M2989 1016 c-2 -2 -3 -47 -1 -100 3 -75 6 -96 18 -96 11 0 14 15 14
65 0 37 4 65 10 65 6 0 10 -9 10 -19 0 -27 37 -111 49 -111 5 0 22 32 37 70
15 39 30 68 33 64 3 -3 4 -34 2 -70 -2 -54 0 -64 13 -64 15 0 16 13 14 97 -3
86 -5 98 -22 101 -22 5 -30 -7 -52 -75 -9 -29 -20 -53 -25 -53 -4 0 -15 24
-25 53 -9 28 -21 58 -27 65 -9 11 -39 17 -48 8z"/>
<path d="M3268 1013 c-16 -4 -18 -17 -18 -99 l0 -95 63 3 c73 4 83 22 15 26
-43 3 -48 6 -48 27 0 20 6 24 37 27 50 4 55 26 6 30 -31 2 -39 7 -41 26 -3 20
1 22 42 22 39 0 46 3 46 20 0 17 -6 20 -42 19 -24 -1 -51 -3 -60 -6z"/>
<path d="M3427 1014 c-4 -4 -7 -49 -7 -101 0 -76 3 -93 15 -93 12 0 15 13 15
60 0 44 4 60 14 60 7 0 16 -8 19 -17 15 -44 55 -98 75 -101 21 -3 22 0 22 91
0 98 -3 109 -26 100 -11 -4 -12 -18 -7 -60 8 -69 -2 -68 -54 6 -38 55 -53 67
-66 55z"/>
<path d="M3623 1008 c-7 -12 7 -25 32 -30 18 -3 20 -12 23 -81 2 -59 6 -77 17
-77 12 0 15 17 15 80 0 57 4 80 13 81 6 1 19 2 27 3 8 0 15 8 15 16 0 12 -15
15 -68 16 -37 0 -70 -3 -74 -8z"/>
<path d="M3900 1000 c-38 -38 -21 -78 45 -102 23 -8 35 -18 33 -28 -4 -18 -46
-26 -61 -11 -13 13 -47 15 -47 3 0 -37 96 -56 133 -28 29 22 19 68 -18 84 -51
22 -60 29 -63 46 -4 21 26 32 49 18 25 -16 39 -15 39 3 0 36 -78 47 -110 15z"/>
<path d="M4104 1008 c-60 -29 -60 -145 0 -177 44 -24 87 -17 119 19 25 28 29
39 24 76 -8 75 -77 115 -143 82z m94 -45 c17 -24 15 -73 -5 -95 -33 -36 -84
-14 -98 42 -9 39 29 84 64 75 14 -3 32 -13 39 -22z"/>
<path d="M4322 995 c-17 -14 -33 -38 -37 -54 -8 -36 16 -95 43 -110 34 -18 86
-13 111 10 30 28 13 49 -20 25 -33 -22 -65 -20 -83 6 -23 32 -20 63 8 95 25
28 25 28 56 11 18 -10 36 -18 41 -18 17 0 9 29 -13 44 -33 23 -72 20 -106 -9z"/>
<path d="M4513 1013 c-9 -3 -13 -33 -13 -99 0 -87 1 -94 20 -94 19 0 20 7 20
94 0 94 -4 107 -27 99z"/>
<path d="M4652 1011 c-7 -4 -23 -39 -36 -77 -40 -116 -40 -114 -17 -114 14 0
23 9 27 25 5 21 12 25 40 25 28 0 36 -5 44 -25 6 -16 17 -25 31 -25 16 0 19 4
14 18 -4 9 -18 49 -32 87 -34 93 -43 104 -71 86z m28 -65 c0 -8 3 -21 6 -30 4
-10 0 -18 -11 -22 -25 -10 -37 8 -26 39 11 29 31 37 31 13z"/>
<path d="M4800 915 l0 -95 60 0 c46 0 60 3 60 14 0 10 -14 16 -42 18 l-43 3
-3 78 c-2 59 -6 77 -17 77 -12 0 -15 -18 -15 -95z"/>
</g>
</svg>
